<?xml version="1.0" encoding="iso-8859-1"?>
<!-- Generator: Adobe Illustrator 19.0.0, SVG Export Plug-In . SVG Version: 6.00 Build 0)  -->
<svg version="1.1" id="Layer_1" xmlns="http://www.w3.org/2000/svg" xmlns:xlink="http://www.w3.org/1999/xlink" x="0px" y="0px"
	 viewBox="0 0 511.982 511.982" style="enable-background:new 0 0 511.982 511.982;" xml:space="preserve">
<path style="fill:#D770AD;" d="M424.301,2.611c-3.969-3.438-9.828-3.484-13.844-0.117l-98.483,82.607
	c-2.453,2.055-3.844,5.102-3.812,8.297c0.047,3.195,1.516,6.211,4.016,8.203l31.468,25.147c1.906,1.516,4.25,2.328,6.656,2.328
	c0.608,0,1.202-0.047,1.812-0.148c3-0.523,5.641-2.297,7.25-4.883l67-107.748C429.128,11.845,428.253,6.04,424.301,2.611z"/>
<path style="fill:#E6E9ED;" d="M247.522,78.609c-1.781-3.445-5.312-5.656-9.188-5.766c0,0-0.188-0.008-0.562-0.008
	c-2.656,0-12.437,0.289-26.499,3.969c-18.203,4.773-35.843,13.109-52.421,24.781c-22.515,15.859-42.374,37.499-59.045,64.326
	c-20.343,32.757-35.999,73.499-46.562,121.076c-0.703,3.188,0.094,6.531,2.172,9.062s5.188,3.952,8.484,3.905
	c0.047,0,0.359,0,0.891,0c8.687,0,20.921,1.109,29.202,4.219c1.234,0.469,2.5,0.688,3.766,0.688c3.484,0,6.859-1.719,8.875-4.75
	L246.96,89.421C249.1,86.187,249.304,82.046,247.522,78.609z"/>
<path style="fill:#EC87C0;" d="M293.568,511.982c-0.516,0-1.047-0.031-1.578-0.109c-3.938-0.594-7.219-3.328-8.516-7.094
	c-12.483-36.452-30.155-69.639-52.499-98.654c-17.89-23.234-38.827-43.858-62.202-61.326
	c-39.983-29.875-73.748-40.281-74.092-40.391c-2.766-0.828-5.078-2.75-6.406-5.327c-1.312-2.562-1.547-5.562-0.625-8.297
	c1.938-5.703,47.718-140.13,88.717-181.144c31.64-31.64,64.92-39.343,80.623-41.194l9.922-50.945
	c0.578-3.008,2.438-5.617,5.078-7.164s5.812-1.891,8.733-0.93c1.141,0.375,11.453,4.031,22.438,16.43
	c13.172,14.875,21.781,35.617,25.656,61.694c9.046,7.094,34.482,27.242,59.982,49.233c18.672,16.109,33.766,30.077,44.843,41.522
	c20.234,20.882,23.844,30.07,24.719,35.734c2.594,16.585-3.359,32.671-8.812,43.249c-5.422,10.516-12.969,20.562-17.969,23.874
	c-2.922,1.953-9.015,4.266-17.265-1.766c-3.25,2.5-18.031,13.109-33.203,13.109c-2.672,0-5.375-0.328-8.016-1.094
	c-9.469-2.75-16.75-12.609-22.281-30.14c-1.374-4.391-2.468-8.672-3.28-12.25c-9.359,0.078-24.265-0.641-39.577-4.734l-6.734,34.577
	c9.516,14.5,41.421,66.749,41.421,115.81c0,56.516-38.796,110.654-40.437,112.92C300.178,510.373,296.959,511.982,293.568,511.982z"
	/>
<path style="fill:#434A54;" d="M331.973,138.662c0,5.891-4.78,10.664-10.671,10.664s-10.656-4.773-10.656-10.664
	s4.766-10.664,10.656-10.664S331.973,132.772,331.973,138.662z"/>
<g>
	<polygon style="fill:#D770AD;" points="399.972,256.738 407.144,284.175 414.316,279.378 	"/>
	<path style="fill:#D770AD;" d="M267.304,232.52c0,0,20.437,23.546,38.218,24.218l2.438-12.469L267.304,232.52z"/>
	<polygon style="fill:#D770AD;" points="256.991,68.446 243.038,71.016 254.413,108.359 	"/>
</g>
<g>
</g>
<g>
</g>
<g>
</g>
<g>
</g>
<g>
</g>
<g>
</g>
<g>
</g>
<g>
</g>
<g>
</g>
<g>
</g>
<g>
</g>
<g>
</g>
<g>
</g>
<g>
</g>
<g>
</g>
</svg>
